<?xml version="1.0" encoding="UTF-8"?>
<svg width="24px" height="23px" viewBox="0 0 24 23" version="1.1" xmlns="http://www.w3.org/2000/svg" xmlns:xlink="http://www.w3.org/1999/xlink">
    <title>Shape</title>
    <g id="Page-1" stroke="none" stroke-width="1" fill="none" fill-rule="evenodd">
        <g id="Mutal_funds" transform="translate(-490.000000, -2024.000000)" fill="#00D09C" fill-rule="nonzero">
            <g id="sec-3rd" transform="translate(1.000000, 1691.000000)">
                <g id="text" transform="translate(150.000000, 161.000000)">
                    <g id="Group-7" transform="translate(0.000000, 151.000000)">
                        <g id="Group-3" transform="translate(320.000000, 0.000000)">
                            <g id="61469" transform="translate(19.000000, 19.000000)">
                                <path d="M21.7627,2.7177 L21.7627,5.6702 C21.7627,7.0047 20.6801,8.0801 19.3458,8.0801 L17.82115,8.0801 C16.48675,8.0801 15.3898,7.0047 15.3898,5.6702 L15.3898,2.7071 L8.5178,2.7071 L8.5178,5.6702 C8.5178,7.0047 7.4209,8.0801 6.0867,8.0801 L4.56175,8.0801 C3.2275,8.0801 2.14495,7.0047 2.14495,5.6702 L2.14495,2.7177 C0.9788,2.75285 0.02055,3.7178 0.02055,4.90385 L0.02055,22.2069 C0.02055,23.41525 0.99995,24.40765 2.2083,24.40765 L21.6993,24.40765 C22.90585,24.40765 23.88705,23.4132 23.88705,22.2069 L23.88705,4.90385 C23.88705,3.7178 22.92885,2.75285 21.7627,2.7177 Z M21.05455,21.1294 C21.05455,21.6516 20.63115,22.07525 20.10875,22.07525 L3.7572,22.07525 C3.2348,22.07525 2.8114,21.6516 2.8114,21.1294 L2.8114,12.19175 C2.8114,11.66935 3.23475,11.2457 3.7572,11.2457 L20.1087,11.2457 C20.6311,11.2457 21.05455,11.66935 21.05455,12.19175 L21.05455,21.1294 L21.05455,21.1294 Z" id="Shape"></path>
                            </g>
                        </g>
                    </g>
                </g>
            </g>
        </g>
    </g>
</svg>