<?xml version="1.0" encoding="UTF-8"?>
<svg width="15px" height="15px" viewBox="0 0 15 15" version="1.1" xmlns="http://www.w3.org/2000/svg" xmlns:xlink="http://www.w3.org/1999/xlink">
    <title>search - material</title>
    <g id="Page-1" stroke="none" stroke-width="1" fill="none" fill-rule="evenodd" opacity="0.5">
        <g id="Mutal_funds" transform="translate(-546.000000, -74.000000)" fill="#222222">
            <g id="Search-Bar" transform="translate(531.000000, 60.000000)">
                <path d="M20.44,23.18 C21.1200034,23.18 21.7466638,23.0100017 22.32,22.67 C22.8933362,22.3299983 23.346665,21.8733362 23.68,21.3 C24.013335,20.7266638 24.18,20.1000034 24.18,19.42 C24.18,18.7399966 24.013335,18.1133362 23.68,17.54 C23.346665,16.9666638 22.8933362,16.513335 22.32,16.18 C21.7466638,15.846665 21.1200034,15.68 20.44,15.68 C19.7599966,15.68 19.1333362,15.846665 18.56,16.18 C17.9866638,16.513335 17.5300017,16.9666638 17.19,17.54 C16.8499983,18.1133362 16.68,18.7399966 16.68,19.42 C16.68,20.1000034 16.8499983,20.7266638 17.19,21.3 C17.5300017,21.8733362 17.9866638,22.3299983 18.56,22.67 C19.1333362,23.0100017 19.7599966,23.18 20.44,23.18 Z M25.44,23.18 L29.58,27.32 L28.32,28.58 L24.18,24.42 L24.18,23.76 L23.94,23.54 C23.473331,23.9533354 22.9366697,24.2699989 22.33,24.49 C21.7233303,24.7100011 21.0933366,24.82 20.44,24.82 C19.4533284,24.82 18.5433375,24.5800024 17.71,24.1 C16.8766625,23.6199976 16.2200024,22.9733374 15.74,22.16 C15.2466642,21.3199958 15,20.4066716 15,19.42 C15,18.4333284 15.2433309,17.5233375 15.73,16.69 C16.2166691,15.8566625 16.8766625,15.2000024 17.71,14.72 C18.5433375,14.2399976 19.4533284,14 20.44,14 C21.4266716,14 22.3399958,14.2466642 23.18,14.74 C23.9933374,15.2200024 24.6366643,15.8733292 25.11,16.7 C25.5833357,17.5266708 25.82,18.4333284 25.82,19.42 C25.82,20.08667 25.7100011,20.7233303 25.49,21.33 C25.2699989,21.9366697 24.9533354,22.473331 24.54,22.94 L24.76,23.18 L25.44,23.18 Z" id="search---material"></path>
            </g>
        </g>
    </g>
</svg>